<?xml version="1.0" encoding="utf-8"?>
<!-- Generator: Adobe Illustrator 19.2.0, SVG Export Plug-In . SVG Version: 6.00 Build 0)  -->
<svg version="1.1" id="Layer_1" xmlns="http://www.w3.org/2000/svg" xmlns:xlink="http://www.w3.org/1999/xlink" x="0px" y="0px"
	 width="20px" height="20px" viewBox="0 0 20 20" style="enable-background:new 0 0 20 20;" xml:space="preserve">
<style type="text/css">
	.st0{fill-rule:evenodd;clip-rule:evenodd;fill:#0044ff;}
</style>
<path class="st0" d="M19.9,4l-3.9,14.1c-0.2,0.8-1,1.4-1.8,1.4c-0.2,0-0.3,0-0.5-0.1l-1.2-0.3c-1-0.3-1.6-1.3-1.3-2.2l0.1-0.3
	c-0.6-0.1-1.3-0.1-1.9-0.2c0,1-0.8,1.8-1.9,1.8H6.2c-0.8,0-1.5-0.5-1.8-1.2H0V1.2h4.5C4.8,0.5,5.5,0,6.2,0h1.2c1,0,1.9,0.8,1.9,1.8
	v0c1.9,0.1,3.9,0.4,5.7,1l0-0.1c0,0,0,0,0,0c0.3-1,1.3-1.6,2.3-1.3l1.2,0.3c0.5,0.1,0.9,0.4,1.1,0.9C20,3.1,20.1,3.6,19.9,4z
	 M4.4,14.6H2.5v-1.2h1.9v-1.2H2.5V11h1.9V9.8H2.5V8.5h1.9V7.3H2.5V6.1h1.9V4.9H2.5V3.7h1.9V2.4H1.3v13.4h3.1V14.6z M8.1,1.8
	c0-0.3-0.3-0.6-0.6-0.6H6.2c-0.3,0-0.6,0.3-0.6,0.6v14.6c0,0.3,0.3,0.6,0.6,0.6h1.2c0.3,0,0.6-0.3,0.6-0.6V1.8z M12.7,3.5l-0.5,4.2
	l-1.2-0.2l0.5-4.3c-0.7-0.1-1.4-0.2-2.1-0.2v12.2c0.2,0,0.4,0,0.5,0l0.2-1.7l1.2,0.2l-0.2,1.7c0.2,0,0.3,0,0.5,0.1L14.7,4
	C14.1,3.8,13.4,3.6,12.7,3.5z M18.3,3l-1.2-0.3c-0.1,0-0.1,0-0.2,0c-0.3,0-0.5,0.2-0.6,0.5l-3.9,14.1c0,0,0,0,0,0
	c-0.1,0.3,0.1,0.7,0.4,0.7l1.2,0.3c0,0,0,0,0,0c0.3,0.1,0.7-0.1,0.8-0.4l3.9-14.1h0C18.8,3.4,18.6,3,18.3,3z M10.3,12.3l0.2-1.2
	l1.2,0.2l-0.2,1.2L10.3,12.3z M10.8,8.7L12,8.9l-0.2,1.2l-1.2-0.2L10.8,8.7z"/>
</svg>
