<?xml version="1.0" encoding="utf-8"?>
<!-- Generator: Adobe Illustrator 19.2.0, SVG Export Plug-In . SVG Version: 6.00 Build 0)  -->
<svg version="1.1" id="Layer_1" xmlns="http://www.w3.org/2000/svg" xmlns:xlink="http://www.w3.org/1999/xlink" x="0px" y="0px"
	 width="13px" height="15px" viewBox="0 0 13 15" style="enable-background:new 0 0 13 15;" xml:space="preserve">
<style type="text/css">
	.st0{fill:#ffffff;}
</style>
<path class="st0" d="M9.8,8.1C9.9,8,10,8,10,7.9l0.2,6.5c0,0.2,0.1,0.3,0.2,0.4c0.2,0.1,0.4,0.2,0.6,0.2h1.2c0.2,0,0.4-0.1,0.6-0.2
	c0.2-0.1,0.2-0.3,0.2-0.4V0.9c0-0.2-0.1-0.3-0.2-0.4c-0.2-0.1-0.4-0.2-0.6-0.2H11c-0.2,0-0.4,0.1-0.6,0.2c-0.2,0.1-0.2,0.3-0.2,0.4
	L10,7.4c0-0.1-0.1-0.1-0.2-0.2L0.8,0.4C0.6,0.3,0.5,0.3,0.3,0.3c-0.1,0-0.2,0.1-0.2,0.3v14.1c0,0.2,0.1,0.3,0.2,0.3
	c0.1,0,0.2,0,0.4-0.1L9.8,8.1z"/>
</svg>
