<?xml version="1.0" encoding="utf-8"?>
<!-- Generator: Adobe Illustrator 19.2.0, SVG Export Plug-In . SVG Version: 6.00 Build 0)  -->
<svg version="1.1" id="Layer_1" xmlns="http://www.w3.org/2000/svg" xmlns:xlink="http://www.w3.org/1999/xlink" x="0px" y="0px"
	 width="17px" height="15px" viewBox="0 0 17 15" style="enable-background:new 0 0 17 15;" xml:space="preserve">
<style type="text/css">
	.st0{fill:#ffffff;}
</style>
<path class="st0" d="M0.8,5.4l4.6-4.6c0.1-0.1,0.2-0.2,0.4-0.2c0.2,0,0.3,0.1,0.4,0.2c0.1,0.1,0.2,0.2,0.2,0.4v2.3h2
	c4.2,0,6.8,1.2,7.8,3.6c0.3,0.8,0.5,1.8,0.5,3c0,1-0.4,2.3-1.1,4c0,0,0,0.1-0.1,0.2c0,0.1-0.1,0.2-0.1,0.3c0,0.1-0.1,0.1-0.1,0.2
	C15.1,14.9,15.1,15,15,15c-0.1,0-0.2,0-0.2-0.1c-0.1-0.1-0.1-0.1-0.1-0.2c0-0.1,0-0.1,0-0.2c0-0.1,0-0.2,0-0.2c0-0.4,0-0.8,0-1.1
	c0-0.6-0.1-1.1-0.2-1.6c-0.1-0.5-0.2-0.9-0.4-1.2s-0.4-0.6-0.7-0.9c-0.3-0.3-0.6-0.5-0.9-0.6c-0.3-0.2-0.7-0.3-1.2-0.4
	c-0.5-0.1-0.9-0.2-1.4-0.2c-0.5,0-1-0.1-1.6-0.1h-2v2.3c0,0.2-0.1,0.3-0.2,0.4C6.1,10.9,6,11,5.8,11c-0.2,0-0.3-0.1-0.4-0.2L0.8,6.2
	C0.7,6.1,0.7,6,0.7,5.8C0.7,5.7,0.7,5.5,0.8,5.4L0.8,5.4z"/>
</svg>
