<?xml version="1.0" encoding="utf-8"?>
<!-- Generator: Adobe Illustrator 19.2.0, SVG Export Plug-In . SVG Version: 6.00 Build 0)  -->
<svg version="1.1" id="Layer_1" xmlns="http://www.w3.org/2000/svg" xmlns:xlink="http://www.w3.org/1999/xlink" x="0px" y="0px"
	 width="32px" height="20px" viewBox="0 0 32 20" style="enable-background:new 0 0 32 20;" xml:space="preserve">
<style type="text/css">
	.st0{fill-rule:evenodd;clip-rule:evenodd;fill:#FFFFFF;}
</style>
<g>
	<path class="st0" d="M28.5,10.7v3.6H26v-3.6h-3.6V8.2H26V4.8h2.5v3.5H32v2.5H28.5z M10.2,20C4.6,20,0,15.5,0,10C0,4.5,4.6,0,10.2,0
		c2.6,0,5,1,6.8,2.6c-2.1,2-2.1,2.1-2.9,2.9c-1-0.8-2.2-1.5-3.9-1.5c-3.3,0-5.9,2.7-5.9,5.9c0,3.3,2.6,5.9,5.9,5.9
		c3.3,0,4.6-1.4,5.5-4c-1.6,0-5.5,0-5.5,0V8c0,0,7.8,0,9.8,0C20.6,12.8,18.6,20,10.2,20z"/>
</g>
</svg>
