<?xml version="1.0" encoding="utf-8"?>
<!-- Generator: Adobe Illustrator 19.2.0, SVG Export Plug-In . SVG Version: 6.00 Build 0)  -->
<svg version="1.1" id="Layer_1" xmlns="http://www.w3.org/2000/svg" xmlns:xlink="http://www.w3.org/1999/xlink" x="0px" y="0px"
	 width="33px" height="18px" viewBox="0 0 33 18" style="enable-background:new 0 0 33 18;" xml:space="preserve">
<style type="text/css">
	.st0{fill-rule:evenodd;clip-rule:evenodd;fill:#FFFFFF;}
</style>
<g>
	<path class="st0" d="M31.8,16.3c0-0.1-0.1-0.2-0.1-0.2c-0.6-1-1.6-2.2-3.2-3.6l0,0l0,0l0,0h0c-0.7-0.7-1.2-1.1-1.3-1.3
		c-0.3-0.4-0.4-0.9-0.2-1.3c0.1-0.3,0.6-1.1,1.5-2.2c0.5-0.6,0.8-1,1.1-1.4C31.4,3.6,32.2,2,32,1.3l-0.1-0.2
		c-0.1-0.1-0.2-0.2-0.5-0.3c-0.3-0.1-0.6-0.1-1.1,0l-4.8,0c-0.1,0-0.2,0-0.3,0c-0.1,0-0.2,0-0.2,0l-0.1,0l-0.1,0
		c-0.1,0-0.1,0.1-0.2,0.2c-0.1,0.1-0.1,0.2-0.2,0.3c-0.5,1.3-1.1,2.6-1.8,3.7c-0.4,0.7-0.8,1.3-1.1,1.8c-0.3,0.5-0.6,0.9-0.9,1.1
		c-0.2,0.2-0.4,0.4-0.6,0.6c-0.2,0.1-0.3,0.2-0.4,0.2c-0.1,0-0.2,0-0.3-0.1c-0.2-0.1-0.3-0.2-0.4-0.4c-0.1-0.2-0.2-0.4-0.2-0.6
		c0-0.3-0.1-0.5-0.1-0.7c0-0.2,0-0.4,0-0.8c0-0.3,0-0.6,0-0.7c0-0.4,0-0.9,0-1.4c0-0.5,0-0.9,0-1.2c0-0.3,0-0.6,0-0.9
		c0-0.3,0-0.6-0.1-0.7c0-0.2-0.1-0.4-0.2-0.5c-0.1-0.2-0.2-0.3-0.3-0.4c-0.2-0.1-0.3-0.2-0.6-0.2C17.1,0.1,16.3,0,15.4,0
		c-2.1,0-3.4,0.1-4,0.4c-0.2,0.1-0.4,0.3-0.6,0.5c-0.2,0.2-0.2,0.4-0.1,0.4c0.7,0.1,1.1,0.3,1.4,0.7l0.1,0.2
		c0.1,0.1,0.2,0.4,0.2,0.8c0.1,0.4,0.1,0.8,0.1,1.2c0.1,0.8,0.1,1.5,0,2.1c-0.1,0.6-0.1,1-0.2,1.3c-0.1,0.3-0.1,0.6-0.2,0.8
		C12.1,8.5,12,8.6,12,8.7c0,0-0.1,0.1-0.1,0.1c-0.1,0.1-0.3,0.1-0.4,0.1c-0.2,0-0.3-0.1-0.6-0.2c-0.2-0.2-0.5-0.4-0.7-0.6
		C10,7.7,9.7,7.3,9.4,6.8C9.1,6.4,8.8,5.8,8.5,5.1L8.2,4.7C8,4.3,7.8,3.9,7.5,3.3C7.2,2.7,7,2.2,6.8,1.6C6.7,1.4,6.5,1.2,6.4,1.1
		L6.3,1C6.2,1,6.1,0.9,6,0.9c-0.1,0-0.2-0.1-0.4-0.1l-4.6,0c-0.5,0-0.8,0.1-0.9,0.3L0.1,1.2C0,1.3,0,1.4,0,1.5c0,0.1,0,0.3,0.1,0.4
		c0.7,1.5,1.4,3,2.2,4.5c0.8,1.4,1.5,2.6,2,3.5c0.6,0.9,1.2,1.7,1.8,2.5c0.6,0.8,1,1.3,1.2,1.5c0.2,0.2,0.3,0.4,0.5,0.5l0.4,0.4
		c0.3,0.3,0.7,0.6,1.2,0.9c0.5,0.4,1.1,0.7,1.7,1.1c0.6,0.4,1.4,0.6,2.2,0.9c0.8,0.2,1.6,0.3,2.4,0.3h1.9c0.4,0,0.7-0.2,0.9-0.4
		l0.1-0.1c0-0.1,0.1-0.2,0.1-0.3c0-0.1,0.1-0.3,0.1-0.5c0-0.5,0-0.9,0.1-1.3c0.1-0.4,0.2-0.7,0.3-0.9c0.1-0.2,0.2-0.4,0.4-0.5
		c0.1-0.1,0.2-0.2,0.3-0.2c0.1,0,0.1,0,0.1-0.1c0.3-0.1,0.6,0,0.9,0.3c0.4,0.3,0.7,0.6,1,1c0.3,0.4,0.7,0.8,1.1,1.3
		c0.4,0.5,0.8,0.8,1.2,1.1l0.3,0.2c0.2,0.1,0.5,0.3,0.9,0.4C25.7,18,26,18,26.3,18l4.3-0.1c0.4,0,0.8-0.1,1-0.2
		c0.2-0.1,0.4-0.3,0.4-0.5c0-0.2,0-0.4,0-0.6C31.9,16.5,31.9,16.3,31.8,16.3z"/>
</g>
</svg>
