<?xml version="1.0" encoding="utf-8"?>
<!-- Generator: Adobe Illustrator 19.2.0, SVG Export Plug-In . SVG Version: 6.00 Build 0)  -->
<svg version="1.1" id="Layer_1" xmlns="http://www.w3.org/2000/svg" xmlns:xlink="http://www.w3.org/1999/xlink" x="0px" y="0px"
	 width="24px" height="24px" viewBox="0 0 24 24" style="enable-background:new 0 0 24 24;" xml:space="preserve">
<style type="text/css">
	.st0{fill-rule:evenodd;clip-rule:evenodd;fill:#FFFFFF;}
</style>
<g>
	<path class="st0" d="M22.2,0H1.8C0.8,0,0,0.8,0,1.7v20.5c0,1,0.8,1.7,1.8,1.7h20.5c1,0,1.8-0.8,1.8-1.7V1.7C24,0.8,23.2,0,22.2,0z
		 M7.3,20.5H3.8V9.1h3.4L7.3,20.5z M5.5,7.6c-1.1,0-2-0.9-2-2c0-1.1,0.9-2,2-2c1.1,0,1.9,0.9,1.9,2C7.5,6.7,6.7,7.6,5.5,7.6z
		 M20.5,20.5H17V15c0-1.3,0-3-1.8-3c-1.8,0-2.1,1.4-2.1,2.9v5.6H9.5L9.4,9.1h3.5v1.6h0c0.5-0.9,1.6-1.8,3.3-1.8
		c3.6,0,4.2,2.4,4.2,5.4V20.5z"/>
</g>
</svg>
