<?xml version="1.0" encoding="utf-8"?>
<!-- Generator: Adobe Illustrator 19.2.0, SVG Export Plug-In . SVG Version: 6.00 Build 0)  -->
<svg version="1.1" id="Layer_1" xmlns="http://www.w3.org/2000/svg" xmlns:xlink="http://www.w3.org/1999/xlink" x="0px" y="0px"
	 width="28px" height="22px" viewBox="0 0 28 22" style="enable-background:new 0 0 28 22;" xml:space="preserve">
<style type="text/css">
	.st0{fill-rule:evenodd;clip-rule:evenodd;fill:#FFFFFF;}
</style>
<g>
	<path class="st0" d="M9,22c10.2,0,15.8-8.5,15.8-15.8c0-0.2,0-0.5,0-0.7c1.1-0.8,2-1.8,2.8-2.9c-1,0.4-2.1,0.7-3.2,0.9
		c1.1-0.7,2-1.8,2.4-3.1c-1.1,0.6-2.3,1.1-3.5,1.3c-1-1.1-2.5-1.8-4-1.8c-3.1,0-5.3,2.7-5.3,5.7c0,0.4,0,0.9,0.1,1.3
		C9.4,6.8,5.1,4.4,2.4,1C1.9,1.8,1.6,2.8,1.6,3.8c0,1.9,1,3.6,2.5,4.6c-0.9,0-1.8-0.3-2.5-0.7c0,0,0,0,0,0.1c0,2.7,1.9,4.9,4.4,5.4
		c-0.5,0.1-1,0.2-1.5,0.2c-0.4,0-0.7,0-1-0.1c0.7,2.2,2.8,3.8,5.2,3.9c-1.9,1.5-4.3,2.4-6.9,2.4c-0.4,0-0.9,0-1.3-0.1
		C3,21.1,5.9,22,9,22"/>
</g>
</svg>
