<?xml version="1.0" encoding="utf-8"?>
<!-- Generator: Adobe Illustrator 19.2.0, SVG Export Plug-In . SVG Version: 6.00 Build 0)  -->
<svg version="1.1" id="Layer_1" xmlns="http://www.w3.org/2000/svg" xmlns:xlink="http://www.w3.org/1999/xlink" x="0px" y="0px"
	 width="22px" height="22px" viewBox="0 0 22 22" style="enable-background:new 0 0 22 22;" xml:space="preserve">
<style type="text/css">
	.st0{fill-rule:evenodd;clip-rule:evenodd;fill:#FFFFFF;}
</style>
<g>
	<path class="st0" d="M20.8,0H1.2C0.5,0,0,0.5,0,1.2v19.6C0,21.5,0.5,22,1.2,22H12v-9H9v-3h3V7.5C12,4.7,13.5,3,16,3
		c1.2,0,2.3,0.1,2.6,0.1v3l-1.8,0c-1.4,0-1.8,0.8-1.8,1.8V10h3.6L18,13h-3v9h5.8c0.7,0,1.2-0.5,1.2-1.2V1.2C22,0.5,21.5,0,20.8,0z"
		/>
</g>
</svg>
