<?xml version="1.0" encoding="utf-8"?>
<!-- Generator: Adobe Illustrator 19.2.0, SVG Export Plug-In . SVG Version: 6.00 Build 0)  -->
<svg version="1.1" id="Layer_1" xmlns="http://www.w3.org/2000/svg" xmlns:xlink="http://www.w3.org/1999/xlink" x="0px" y="0px"
	 width="11px" height="14px" viewBox="0 0 11 14" style="enable-background:new 0 0 11 14;" xml:space="preserve">
<style type="text/css">
	.st0{fill:#0044ff;}
</style>
<path class="st0" d="M10.9,10.4c0-0.4-0.1-0.8-0.3-1.3c-0.1-0.4-0.3-0.8-0.5-1.1C10,7.7,9.7,7.5,9.3,7.3C9,7.1,8.6,7,8.2,7
	C7.4,7.7,6.5,8.1,5.5,8.1c-1,0-1.9-0.4-2.7-1.1C2.4,7,2,7.1,1.7,7.3C1.3,7.5,1,7.7,0.8,8C0.6,8.3,0.5,8.7,0.3,9.1
	C0.2,9.6,0.1,10,0.1,10.4C0,10.8,0,11.3,0,11.8c0,0.6,0.2,1.1,0.5,1.6C0.9,13.8,1.3,14,1.8,14h7.3c0.5,0,0.9-0.2,1.3-0.7
	c0.4-0.4,0.5-1,0.5-1.6C11,11.3,11,10.8,10.9,10.4z M5.5,0.3c-0.9,0-1.7,0.3-2.3,1c-0.6,0.6-1,1.4-1,2.3c0,0.9,0.3,1.7,1,2.3
	c0.6,0.6,1.4,1,2.3,1s1.7-0.3,2.3-1c0.6-0.6,1-1.4,1-2.3c0-0.9-0.3-1.7-1-2.3C7.2,0.6,6.4,0.3,5.5,0.3z"/>
</svg>
